<?xml version="1.0" standalone="no"?>
<!DOCTYPE svg PUBLIC "-//W3C//DTD SVG 20010904//EN"
 "http://www.w3.org/TR/2001/REC-SVG-20010904/DTD/svg10.dtd">
<svg version="1.0" xmlns="http://www.w3.org/2000/svg"
 width="512.000000pt" height="512.000000pt" viewBox="0 0 512.000000 512.000000"
 preserveAspectRatio="xMidYMid meet">

<g transform="translate(0.000000,512.000000) scale(0.100000,-0.100000)"
fill="#000000" stroke="none">
<path d="M122 3843 c-41 -20 -69 -55 -82 -103 -7 -25 -9 -509 -8 -1427 l3
-1390 28 -36 c53 -70 17 -67 720 -67 l634 0 33 23 c19 12 43 38 54 57 21 35
21 41 21 1440 0 1400 0 1405 -21 1440 -11 19 -38 45 -60 57 l-39 23 -625 0
c-556 0 -629 -2 -658 -17z m1297 -82 c11 -11 23 -35 26 -53 3 -18 4 -649 3
-1401 l-3 -1369 -24 -19 c-22 -18 -48 -19 -646 -19 -620 0 -622 0 -641 21 -18
21 -19 58 -19 1421 l0 1400 24 19 c22 18 48 19 642 19 600 0 620 -1 638 -19z"/>
<path d="M243 3630 c-23 -9 -23 -12 -23 -193 0 -129 4 -187 12 -195 17 -17
1049 -17 1066 0 8 8 12 66 12 195 l0 183 -26 10 c-32 13 -1010 12 -1041 0z
m987 -200 l0 -120 -465 0 -465 0 0 120 0 120 465 0 465 0 0 -120z"/>
<path d="M227 3103 c-4 -3 -7 -91 -7 -194 0 -161 2 -188 16 -193 9 -3 249 -6
534 -6 428 0 520 2 529 14 8 9 11 70 9 197 l-3 184 -536 3 c-294 1 -539 -1
-542 -5z m1003 -193 l0 -120 -465 0 -465 0 0 120 0 120 465 0 465 0 0 -120z"/>
<path d="M232 2582 c-9 -7 -12 -53 -10 -198 l3 -189 540 0 540 0 3 184 c2 127
-1 188 -9 197 -9 12 -102 14 -533 14 -286 0 -527 -4 -534 -8z m998 -192 l0
-120 -465 0 -465 0 0 120 0 120 465 0 465 0 0 -120z"/>
<path d="M682 1950 c-43 -27 -76 -99 -68 -149 16 -98 130 -160 215 -116 43 22
78 69 86 115 9 52 -23 121 -69 150 -44 27 -120 27 -164 0z"/>
<path d="M715 1525 c-111 -39 -138 -177 -50 -254 66 -58 159 -51 214 16 43 52
49 102 19 161 -36 73 -109 103 -183 77z m79 -76 c13 -7 30 -24 36 -40 24 -58
-37 -117 -95 -91 -53 25 -58 99 -7 126 33 19 35 19 66 5z"/>
<path d="M1735 3850 c-11 -4 -31 -20 -45 -35 l-25 -27 -3 -1169 c-2 -1276 -5
-1217 54 -1256 26 -17 63 -18 511 -21 l483 -3 0 -129 0 -130 -96 0 c-137 0
-184 -34 -184 -135 0 -42 5 -52 39 -86 l39 -39 852 0 852 0 39 39 c35 35 39
44 39 91 0 47 -4 56 -39 91 l-39 39 -101 0 -101 0 0 130 0 129 483 3 c459 3
483 4 511 23 59 39 56 -18 56 1243 l0 1159 -23 34 c-12 18 -34 39 -47 46 -20
10 -365 13 -1630 12 -883 0 -1614 -4 -1625 -9z m3233 -82 c15 -15 17 -2304 2
-2328 -8 -13 -198 -15 -1606 -16 -1345 0 -1599 2 -1610 14 -19 19 -21 2311 -2
2330 17 17 3199 17 3216 0z m-1038 -2553 l0 -125 -570 0 -570 0 0 125 0 125
570 0 570 0 0 -125z m258 -221 c32 -22 27 -75 -8 -89 -17 -7 -283 -9 -840 -5
l-814 5 -13 24 c-14 30 -2 58 30 71 12 5 382 9 822 9 718 1 803 -1 823 -15z"/>
<path d="M1837 3683 c-4 -3 -7 -444 -7 -979 0 -952 0 -974 19 -984 27 -14
2995 -14 3022 0 19 10 19 32 19 975 0 530 -3 970 -6 979 -6 15 -149 16 -1523
16 -835 0 -1521 -3 -1524 -7z m2973 -983 l0 -910 -1450 0 -1450 0 0 910 0 910
1450 0 1450 0 0 -910z"/>
<path d="M3292 1663 c-39 -19 -62 -59 -62 -109 0 -54 53 -104 110 -104 34 0
48 6 76 34 28 28 34 41 34 78 0 52 -21 85 -66 104 -42 18 -51 17 -92 -3z"/>
</g>
</svg>
